<svg xmlns="http://www.w3.org/2000/svg" width="311.568" height="128.62" viewBox="0 0 311.568 128.62">
  <g id="Сгруппировать_417" data-name="Сгруппировать 417" transform="translate(-809.94 -403.577)" opacity="0.1">
    <path id="Контур_4337" data-name="Контур 4337" d="M939.078,526.989l-81.564-81.564a7.677,7.677,0,0,1,0-10.857l28.741-28.742a7.677,7.677,0,0,1,10.857,0l81.564,81.564a7.677,7.677,0,0,1,0,10.857l-28.741,28.742a7.677,7.677,0,0,1-10.857,0" transform="translate(1.47)" fill="#91b40d"/>
    <path id="Контур_4338" data-name="Контур 4338" d="M848.167,525.305l-35.979-35.979a7.677,7.677,0,0,1,0-10.857l28.742-28.742a7.68,7.68,0,0,1,10.858,0l35.976,35.979a7.677,7.677,0,0,1,0,10.857l-28.741,28.742a7.675,7.675,0,0,1-10.857,0" transform="translate(0 1.424)" fill="#ffbf00"/>
    <path id="Контур_4339" data-name="Контур 4339" d="M1117.143,524.52a7.677,7.677,0,0,1-7.677,7.677h-24.453a123.51,123.51,0,0,1-87.91-36.414l-50.359-50.358a7.677,7.677,0,0,1,0-10.857l28.741-28.741a7.676,7.676,0,0,1,10.857,0l50.359,50.358a67.872,67.872,0,0,0,48.312,20.013h24.453a7.678,7.678,0,0,1,7.677,7.678Z" transform="translate(4.365 0)" fill="#1a5221"/>
  </g>
</svg>
